<svg width="53" height="27" viewBox="0 0 53 27" fill="none" xmlns="http://www.w3.org/2000/svg">
<path d="M2.788 18.5225V9.22646H1.092V7.16246H5.092V18.5225H2.788ZM9.973 17.2425C9.973 17.6051 9.845 17.9091 9.589 18.1545C9.34367 18.3998 9.03967 18.5225 8.677 18.5225C8.325 18.5225 8.02633 18.3998 7.781 18.1545C7.53567 17.9091 7.413 17.6051 7.413 17.2425C7.413 16.8798 7.53567 16.5758 7.781 16.3305C8.02633 16.0851 8.325 15.9625 8.677 15.9625C9.03967 15.9625 9.34367 16.0851 9.589 16.3305C9.845 16.5758 9.973 16.8798 9.973 17.2425ZM12.2029 6.82646H19.3549V8.79446H14.2509V11.4505C14.4749 11.2051 14.7842 11.0025 15.1789 10.8425C15.5735 10.6718 16.0535 10.5865 16.6189 10.5865C17.1842 10.5865 17.7175 10.7038 18.2189 10.9385C18.7309 11.1731 19.1202 11.4878 19.3869 11.8825C19.9202 12.6505 20.1869 13.5038 20.1869 14.4425C20.1869 15.6798 19.8295 16.6718 19.1149 17.4185C18.4109 18.1545 17.4295 18.5225 16.1709 18.5225C14.9122 18.5225 13.9202 18.2291 13.1949 17.6425C12.4802 17.0451 12.0589 16.2665 11.9309 15.3065H14.1389C14.2349 15.7225 14.4535 16.0531 14.7949 16.2985C15.1469 16.5438 15.6109 16.6665 16.1869 16.6665C16.7735 16.6665 17.2269 16.4691 17.5469 16.0745C17.8669 15.6798 18.0269 15.1571 18.0269 14.5065C18.0269 13.8558 17.8615 13.3545 17.5309 13.0025C17.2109 12.6505 16.7789 12.4745 16.2349 12.4745C15.2109 12.4745 14.5815 12.8851 14.3469 13.7065H12.2029V6.82646ZM31.1597 16.1225C31.1597 15.3011 30.8611 14.8905 30.2638 14.8905C29.6664 14.8905 29.3677 15.3011 29.3677 16.1225C29.3677 16.9331 29.6664 17.3385 30.2638 17.3385C30.8611 17.3385 31.1597 16.9331 31.1597 16.1225ZM30.2797 18.6825C29.5331 18.6825 28.9197 18.4585 28.4397 18.0105C27.9704 17.5518 27.7357 16.9225 27.7357 16.1225C27.7357 15.3118 27.9704 14.6825 28.4397 14.2345C28.9197 13.7758 29.5278 13.5465 30.2638 13.5465C31.0104 13.5465 31.6184 13.7758 32.0877 14.2345C32.5677 14.6825 32.8077 15.3118 32.8077 16.1225C32.8077 16.9225 32.5731 17.5518 32.1038 18.0105C31.6344 18.4585 31.0264 18.6825 30.2797 18.6825ZM23.0317 18.5225L29.3038 7.32246H31.4957L25.2077 18.5225H23.0317ZM25.1597 9.73846C25.1597 8.91713 24.8557 8.50646 24.2477 8.50646C23.6504 8.50646 23.3517 8.91713 23.3517 9.73846C23.3517 10.5491 23.6504 10.9545 24.2477 10.9545C24.8557 10.9545 25.1597 10.5491 25.1597 9.73846ZM22.4237 11.6105C21.9544 11.1518 21.7197 10.5225 21.7197 9.72246C21.7197 8.92246 21.9544 8.29846 22.4237 7.85046C22.9037 7.39179 23.5117 7.16246 24.2477 7.16246C24.9944 7.16246 25.6024 7.39179 26.0717 7.85046C26.5517 8.29846 26.7917 8.92246 26.7917 9.72246C26.7917 10.5225 26.5571 11.1518 26.0877 11.6105C25.6184 12.0691 25.0104 12.2985 24.2637 12.2985C23.5171 12.2985 22.9037 12.0691 22.4237 11.6105Z" fill="#FC5A5A"/>
<path fill-rule="evenodd" clip-rule="evenodd" d="M44.4966 19.5225C44.3109 19.5234 44.1249 19.4473 43.9914 19.2944L39.3313 13.9611C39.0891 13.6838 39.1175 13.2627 39.3947 13.0204C39.672 12.7782 40.0931 12.8066 40.3354 13.0838L43.8334 17.0872V8.18913C43.8334 7.82094 44.1318 7.52246 44.5 7.52246C44.8682 7.52246 45.1667 7.82094 45.1667 8.18913V17.0758L48.6653 13.0831C48.9079 12.8062 49.3291 12.7784 49.6061 13.0211C49.883 13.2637 49.9108 13.6849 49.6681 13.9618L45.0517 19.2302C44.9318 19.4066 44.7294 19.5225 44.5 19.5225C44.4989 19.5225 44.4978 19.5225 44.4966 19.5225Z" fill="#FC5A5A"/>
</svg>
